# xmcd
#
# Track frame offsets: 
#        150
#        16213
#        30123
#        49731
#        64710
#        80885
#        98888
#        114119
#        127989
#        144768
#
# Disc length: 2225 seconds
#
# Revision: 0
# Processed by: cddbd v1.5.2PL0 Copyright (c) Steve Scherf et al.
# Submitted via: ExactAudioCopyFreeDBPlugin 1.0
#
DISCID=7008af0a
DTITLE=Chas Collins - They Wanna Hand A Bad Boy
DYEAR=2010
DGENRE=Country and Folk
TTITLE0=You Turn Me On
TTITLE1=You're Not the Only Show in Town
TTITLE2=Forget About Us
TTITLE3=They Wanna Hang a Bad Boy
TTITLE4=Burn Down the Barn
TTITLE5=You Get Used to Somebody
TTITLE6=What She Don't Know
TTITLE7=Cry Baby
TTITLE8=Why We Said Goodbye
TTITLE9=Take Me Away From Here
EXTD=
EXTT0=
EXTT1=
EXTT2=
EXTT3=
EXTT4=
EXTT5=
EXTT6=
EXTT7=
EXTT8=
EXTT9=
PLAYORDER=
